HIERARCHY
ROOT Hips
{
  OFFSET -4.35178 90.3298 111.633
  CHANNELS 6 Xposition Yposition Zposition Zrotation Xrotation Yrotation
  JOINT LeftUpLeg
  {
    OFFSET 0.103456 1.85784 10.5485
    CHANNELS 6 Xposition Yposition Zposition Zrotation Xrotation Yrotation
    JOINT LeftLeg
    {
      OFFSET 43.5 -4.2e-05 0
      CHANNELS 6 Xposition Yposition Zposition Zrotation Xrotation Yrotation
      JOINT LeftFoot
      {
        OFFSET 42.3722 1.9e-05 0
        CHANNELS 6 Xposition Yposition Zposition Zrotation Xrotation Yrotation
        JOINT LeftToe
        {
          OFFSET 17.3 0 0
          CHANNELS 6 Xposition Yposition Zposition Zrotation Xrotation Yrotation
          End Site
          {
            OFFSET 0 0 0
          }
        }
      }
    }
  }
  JOINT RightUpLeg
  {
    OFFSET 0.103456 1.85782 -10.5485
    CHANNELS 6 Xposition Yposition Zposition Zrotation Xrotation Yrotation
    JOINT RightLeg
    {
      OFFSET 43.5 -2.7e-05 0
      CHANNELS 6 Xposition Yposition Zposition Zrotation Xrotation Yrotation
      JOINT RightFoot
      {
        OFFSET 42.3723 0 0
        CHANNELS 6 Xposition Yposition Zposition Zrotation Xrotation Yrotation
        JOINT RightToe
        {
          OFFSET 17.3 0 1.7e-05
          CHANNELS 6 Xposition Yposition Zposition Zrotation Xrotation Yrotation
          End Site
          {
            OFFSET 0 0 0
          }
        }
      }
    }
  }
  JOINT Spine
  {
    OFFSET 6.90197 -2.60373 0
    CHANNELS 6 Xposition Yposition Zposition Zrotation Xrotation Yrotation
    JOINT Spine1
    {
      OFFSET 12.5881 0 0
      CHANNELS 6 Xposition Yposition Zposition Zrotation Xrotation Yrotation
      JOINT Spine2
      {
        OFFSET 12.3432 -1.8e-05 0
        CHANNELS 6 Xposition Yposition Zposition Zrotation Xrotation Yrotation
        JOINT Neck
        {
          OFFSET 25.8329 2.3e-05 0
          CHANNELS 6 Xposition Yposition Zposition Zrotation Xrotation Yrotation
          JOINT Head
          {
            OFFSET 11.7666 0 0
            CHANNELS 6 Xposition Yposition Zposition Zrotation Xrotation Yrotation
            End Site
            {
              OFFSET 0 0 0
            }
          }
        }
        JOINT LeftShoulder
        {
          OFFSET 19.7459 -1.48035 6.0001
          CHANNELS 6 Xposition Yposition Zposition Zrotation Xrotation Yrotation
          JOINT LeftArm
          {
            OFFSET 11.2841 1.8e-05 -2e-05
            CHANNELS 6 Xposition Yposition Zposition Zrotation Xrotation Yrotation
            JOINT LeftForeArm
            {
              OFFSET 33 -1.3e-05 1.9e-05
              CHANNELS 6 Xposition Yposition Zposition Zrotation Xrotation Yrotation
              JOINT LeftHand
              {
                OFFSET 25.2 3.2e-05 1.1e-05
                CHANNELS 6 Xposition Yposition Zposition Zrotation Xrotation Yrotation
                End Site
                {
                  OFFSET 0 0 0
                }
              }
            }
          }
        }
        JOINT RightShoulder
        {
          OFFSET 19.7461 -1.48036 -6.00008
          CHANNELS 6 Xposition Yposition Zposition Zrotation Xrotation Yrotation
          JOINT RightArm
          {
            OFFSET 11.2841 0 0
            CHANNELS 6 Xposition Yposition Zposition Zrotation Xrotation Yrotation
            JOINT RightForeArm
            {
              OFFSET 33.0001 1.6e-05 0
              CHANNELS 6 Xposition Yposition Zposition Zrotation Xrotation Yrotation
              JOINT RightHand
              {
                OFFSET 25.1998 0.000123 0.000432
                CHANNELS 6 Xposition Yposition Zposition Zrotation Xrotation Yrotation
                End Site
                {
                  OFFSET 0 0 0
                }
              }
            }
          }
        }
      }
    }
  }
}
MOTION
Frames:	5
Frame Time:	0.0333333
-6.90863 79.2182 -39.1803 70.6985 56.4037 17.5487 0.103456 1.85784 10.5485 -2.5126 14.6588 -179.32 43.5 -4.2e-05 1e-05 -93.1446 -24.3883 0.407512 42.3722 1.9e-05 0 82.7827 49.6301 -17.6545 17.3 0 3e-06 21.4546 -1e-06 0.003093 0.103456 1.85782 -10.5485 -32.7713 -11.9224 -174.519 43.5 -2.7e-05 4e-06 -61.7905 13.6186 -15.0208 42.3723 1.77636e-15 1e-05 82.3549 1.65457 -3.1741 17.3 -6e-06 1.7e-05 21.4546 -1.9e-05 -0.003116 6.90197 -2.60373 -3e-06 11.1977 0.417734 0.803041 12.5881 1e-05 8e-06 12.3581 1.14734 1.53796 12.3432 -1.8e-05 -5e-06 12.0151 1.42476 1.48001 25.8329 2.3e-05 7e-06 6.80329 -2.58647 -8.54771 11.7666 -8e-06 -6e-06 -28.9077 -5.14398 7.13733 19.7459 -1.48035 6.0001 -177.766 7.05023 -87.4222 11.2841 1.8e-05 -2e-05 -26.6556 -3.07728 59.6776 33 -1.3e-05 1.9e-05 -95.9384 -13.872 -6.76791 25.2 3.2e-05 1.1e-05 -19.098 49.0979 -13.8209 19.7461 -1.48036 -6.00008 -175.511 -0.41898 77.7837 11.2841 1.42109e-14 -1e-06 -24.034 -4.12978 -44.9346 33.0001 1.6e-05 -1e-06 -56.7059 -4.74814 16.7696 25.1998 0.000123 0.000432 -12.248 -15.6439 8.86506 
-9.70553 78.715 -31.5182 66.593 57.8701 20.7382 0.103456 1.85784 10.5485 -14.2908 15.3407 -174.897 43.5 -4.2e-05 1e-05 -98.1587 -19.0818 3.31398 42.3722 1.9e-05 1.77636e-15 77.6738 36.8417 -3.39907 17.3 0 3e-06 21.4546 -1e-06 0.003093 0.103456 1.85782 -10.5485 -27.6753 -12.1273 -175.067 43.5 -2.7e-05 4e-06 -66.2759 16.1628 -14.966 42.3723 1.77636e-15 1e-05 87.7436 3.25465 -5.04779 17.3 -6e-06 1.7e-05 21.4546 -1.9e-05 -0.003116 6.90197 -2.60373 -3e-06 11.1341 0.385901 1.3033 12.5881 1e-05 8e-06 12.222 1.18527 2.53975 12.3432 -1.8e-05 -5e-06 11.8727 1.52231 2.47775 25.8329 2.3e-05 7e-06 5.56235 -3.44311 -8.61135 11.7666 -8e-06 -6e-06 -26.7501 -5.05816 6.74703 19.7459 -1.48035 6.0001 -177.642 4.28986 -85.3208 11.2841 1.8e-05 -2e-05 -27.1063 2.38878 57.974 33 -1.3e-05 1.9e-05 -91.1762 -17.2435 -6.32239 25.2 3.2e-05 1.1e-05 -16.1461 51.1688 -15.9112 19.7461 -1.48036 -6.00008 -176.371 -2.35867 75.3548 11.2841 -1.42109e-14 -1e-06 -20.4365 4.60925 -43.3805 33.0001 1.6e-05 -1e-06 -40.0351 1.75579 14.3473 25.1998 0.000123 0.000432 -10.1746 -9.24139 4.73872 
-11.9171 78.9102 -23.8542 61.9641 61.13 25.2139 0.103456 1.85784 10.5485 -25.6465 15.5098 -173.748 43.5 -4.2e-05 1e-05 -95.3268 -13.4786 6.69587 42.3722 1.9e-05 8.88178e-16 75.4067 21.0215 7.28965 17.3 0 3e-06 21.4546 -1e-06 0.003093 0.103456 1.85782 -10.5485 -22.3221 -12.5583 -179.218 43.5 -2.7e-05 4e-06 -69.9179 16.0695 -10.7907 42.3723 8.88178e-16 1e-05 92.1331 4.59194 -6.92957 17.3 -6e-06 1.7e-05 21.4546 -1.9e-05 -0.003116 6.90197 -2.60373 -3e-06 11.2828 0.308493 1.50171 12.5881 1e-05 8e-06 12.5186 1.07973 2.9488 12.3432 -1.8e-05 -5e-06 12.1679 1.44669 2.89243 25.8329 2.3e-05 7e-06 3.96902 -3.64858 -8.61016 11.7666 -8e-06 -6e-06 -25.8241 -5.91725 7.43193 19.7459 -1.48035 6.0001 -177.128 2.77301 -84.613 11.2841 1.8e-05 -2e-05 -26.6655 6.67237 55.7101 33 -1.3e-05 1.9e-05 -91.4706 -22.872 -7.11001 25.2 3.2e-05 1.1e-05 -14.5626 49.6393 -14.7579 19.7461 -1.48036 -6.00008 -174.83 -2.88213 73.6584 11.2841 0 -1e-06 -13.4925 12.6886 -44.2673 33.0001 1.6e-05 -1e-06 -36.8923 10.3753 13.2424 25.1998 0.000123 0.000432 -0.369667 -6.34406 2.32316 
-13.7648 79.745 -15.9584 56.005 63.9142 31.4883 0.103456 1.85784 10.5485 -32.5489 16.4845 -174.578 43.5 -4.2e-05 1e-05 -83.7731 -9.22674 9.07523 42.3722 1.9e-05 8.88178e-16 75.879 10.3052 11.7348 17.3 8.88178e-16 3e-06 21.4546 -1e-06 0.003093 0.103456 1.85782 -10.5485 -18.0163 -12.3685 176.658 43.5 -2.7e-05 4e-06 -74.8515 15.181 -6.59822 42.3723 0 1e-05 88.9376 2.87147 -9.49132 17.3 -6e-06 1.7e-05 21.4546 -1.9e-05 -0.003116 6.90197 -2.60373 -3e-06 11.4857 0.142483 1.42943 12.5881 1e-05 8e-06 12.933 0.744337 2.83859 12.3432 -1.8e-05 -5e-06 12.5877 1.11149 2.80279 25.8329 2.3e-05 7e-06 2.60799 -3.76231 -8.47111 11.7666 -8e-06 -6e-06 -24.8201 -7.16593 8.29263 19.7459 -1.48035 6.0001 -175.977 1.00252 -83.7581 11.2841 1.8e-05 -2e-05 -25.0075 10.2013 53.8606 33 -1.3e-05 1.9e-05 -94.8044 -27.4917 -9.20738 25.2 3.2e-05 1.1e-05 -13.7866 47.1825 -12.902 19.7461 -1.48036 -6.00008 -174.479 -1.83412 72.512 11.2841 1.42109e-14 -1e-06 -11.7497 10.6858 -43.2623 33.0001 1.6e-05 -1e-06 -42.2022 15.0815 11.9276 25.1998 0.000123 0.000432 -2.1278 -5.20893 2.49983 
-15.6649 80.4625 -8.27452 51.9686 65.2609 36.2316 0.103456 1.85784 10.5485 -35.1033 18.3549 -176.055 43.5 -4.2e-05 1e-05 -66.1538 -6.3488 10.7723 42.3722 1.9e-05 0 75.5106 7.77057 8.34735 17.3 -3.55271e-15 3e-06 21.4546 -1e-06 0.003093 0.103456 1.85782 -10.5485 -19.6285 -10.1741 174.865 43.5 -2.7e-05 4e-06 -84.0052 15.4796 -6.08192 42.3723 0 1e-05 72.8014 -2.83068 -8.87698 17.3 -6e-06 1.7e-05 21.4546 -1.9e-05 -0.003116 6.90197 -2.60373 -3e-06 11.5151 -0.180536 1.096 12.5881 1e-05 8e-06 13.0109 0.0329531 2.24491 12.3432 -1.8e-05 -5e-06 12.6796 0.366142 2.25391 25.8329 2.3e-05 7e-06 2.05977 -4.05493 -8.81479 11.7666 -8e-06 -6e-06 -24.2175 -7.5635 8.58911 19.7459 -1.48035 6.0001 -172.915 -0.27295 -82.3068 11.2841 1.8e-05 -2e-05 -19.5715 12.2627 52.7303 33 -1.3e-05 1.9e-05 -99.4968 -28.5151 -11.5038 25.2 3.2e-05 1.1e-05 -13.7205 46.6238 -12.6828 19.7461 -1.48036 -6.00008 -175.427 0.794592 72.5138 11.2841 -7.10543e-15 -1e-06 -14.5865 3.68037 -42.2471 33.0001 1.6e-05 -1e-06 -51.5246 12.3678 12.3464 25.1998 0.000123 0.000432 -6.89808 -5.76044 2.58166 
